<svg xmlns="http://www.w3.org/2000/svg" width="42" height="33.001"><path fill="currentColor" d="M38.25 0H3.75a3.769 3.769 0 0 0-2.47.93.736.736 0 0 0-.122.08c-.013.012-.017.029-.029.043A3.611 3.611 0 0 0 .001 3.668v25.666a3.714 3.714 0 0 0 3.75 3.667h34.5a3.714 3.714 0 0 0 3.75-3.667V3.668A3.714 3.714 0 0 0 38.25 0ZM3.75 1.467h34.5a2.28 2.28 0 0 1 .861.168L20.985 19.359 2.867 1.645a2.276 2.276 0 0 1 .883-.178ZM1.5 29.333V3.667a2.133 2.133 0 0 1 .27-1.022l14.029 13.717L1.673 30.174a2.147 2.147 0 0 1-.173-.841Zm36.75 2.2H3.75a2.263 2.263 0 0 1-1.066-.274L16.859 17.4l3.392 3.316c.012.012.029.016.043.027a.738.738 0 0 0 1.418-.023s0 0 .006 0l3.392-3.316 14.186 13.87a2.263 2.263 0 0 1-1.046.259Zm2.25-2.2a2.139 2.139 0 0 1-.182.863L26.17 16.362 40.219 2.625a2.139 2.139 0 0 1 .281 1.042Z" data-name="unread mail"/></svg>