<svg xmlns="http://www.w3.org/2000/svg" width="31" height="33"><path fill="currentColor" d="M8.322 24.136c-3.709-3.95-6.109-7.343-7.341-10.375C-.676 9.68-.234 6.194 2.294 3.393a1.065 1.065 0 0 1 .545-.621.322.322 0 0 0 .089-.057L4.889.626a2.044 2.044 0 0 1 2.943 0l4.413 4.7a2.321 2.321 0 0 1 0 3.134l-1.961 2.09a2.323 2.323 0 0 0 0 3.134l7.847 8.359a2.044 2.044 0 0 0 2.942 0l1.962-2.091a2.042 2.042 0 0 1 2.943 0l4.414 4.7a2.323 2.323 0 0 1 0 3.134l-1.962 2.09a.368.368 0 0 0-.054.095 1.057 1.057 0 0 1-.583.58 7.464 7.464 0 0 1-5.465 2.442c-3.878.007-8.329-2.809-14.006-8.857ZM2.255 13.175c1.16 2.856 3.466 6.1 7.048 9.916 5.326 5.674 9.587 8.432 13.026 8.432a6.146 6.146 0 0 0 4.63-2.162l-5.445-5.8a3.3 3.3 0 0 1-1.912.609 3.341 3.341 0 0 1-2.452-1.079l-7.846-8.359a3.886 3.886 0 0 1-.442-4.649l-5.444-5.8C1.176 6.673.795 9.581 2.255 13.175Zm25.684 15.141 1.472-1.568a.774.774 0 0 0 0-1.044l-4.414-4.7a.685.685 0 0 0-.98 0l-1.472 1.568ZM9.793 8.984l1.471-1.566a.779.779 0 0 0 0-1.046l-4.414-4.7a.683.683 0 0 0-.981 0L4.398 3.238Z"/></svg>