<svg xmlns="http://www.w3.org/2000/svg" width="30.012" height="44.02"><path fill="currentColor" d="M14.308 43.226C13.724 42.538 0 26.197 0 15.526A15.29 15.29 0 0 1 15.002 0c8.237 0 14.969 6.963 15.006 15.524.046 10.673-13.769 27.014-14.359 27.7l-.673.791Zm-12.542-27.7c0 8.733 10.44 22.286 13.218 25.735 2.793-3.447 13.3-17 13.261-25.73-.033-7.59-5.972-13.764-13.24-13.764a13.522 13.522 0 0 0-13.239 13.76Zm6.809-.494a6.431 6.431 0 1 1 6.431 6.442 6.445 6.445 0 0 1-6.432-6.441Zm1.766 0a4.666 4.666 0 1 0 4.666-4.674 4.675 4.675 0 0 0-4.667 4.675Z"/></svg>