<svg xmlns="http://www.w3.org/2000/svg" viewBox="0 0 80 80"><g fill="none" stroke="#a4102b" stroke-width="3"><circle cx="40" cy="40" r="40" stroke="none"/><circle cx="40" cy="40" r="38.5"/></g><g fill="none"><path d="M35 48.893V31.125a1.008 1.008 0 0 1 1.541-.958c.614.387 12.878 8.2 13.925 8.866a1.162 1.162 0 0 1 0 1.925c-.754.49-13.065 8.342-13.957 8.885a1 1 0 0 1-1.509-.95Z"/><path fill="#fff" d="M38 45.351c2.531-1.61 6.06-3.859 8.398-5.352l-8.399-5.348v10.7m-2.005 4.641c-.515 0-.995-.419-.995-1.099V31.125c0-.826.775-1.44 1.541-.957.614.386 12.878 8.198 13.925 8.865.688.44.676 1.486 0 1.925-.753.49-13.065 8.342-13.956 8.886a.981.981 0 0 1-.515.148Z"/></g></svg>