<svg xmlns="http://www.w3.org/2000/svg" width="45" height="45" data-name="Group 22"><defs><clipPath id="a"><path fill="none" d="M0 0h45v45H0z" data-name="Rectangle 4"/></clipPath></defs><g clip-path="url(#a)" data-name="Group 21"><path fill="currentColor" d="M22.5 0A22.5 22.5 0 1 0 45 22.5 22.5 22.5 0 0 0 22.5 0m-8.3 34.3a1.145 1.145 0 0 1-1.761-.159l-1.2-1.2a1.178 1.178 0 0 1 .08-1.761c.88-.64 5.6-4.159 5.679-9.6a9.224 9.224 0 0 1-3.2.56 5.72 5.72 0 0 1-5.761-5.68c0-3.12 2.641-5.761 6.321-5.761 3.04 0 7.28 2.321 7.28 9.281 0 8.4-5.6 12.8-7.44 14.32m15.92 0a1.144 1.144 0 0 1-1.76-.159l-1.2-1.2a1.179 1.179 0 0 1 .08-1.761c.88-.64 5.6-4.159 5.68-9.6a9.234 9.234 0 0 1-3.2.56 5.719 5.719 0 0 1-5.76-5.68c0-3.12 2.64-5.761 6.32-5.761 3.04 0 7.28 2.321 7.28 9.281 0 8.4-5.6 12.8-7.44 14.32" data-name="Path 38"/></g></svg>