<svg xmlns="http://www.w3.org/2000/svg" width="20" height="20"><path d="M14.432.064c1.015.047 1.716.196 2.365.448a4.464 4.464 0 0 1 1.63 1.061c.489.489.809.981 1.061 1.63.252.649.401 1.35.448 2.365C19.993 6.826 20 7.27 20 10c0 2.73-.007 3.174-.064 4.432-.047 1.015-.196 1.716-.448 2.365a4.455 4.455 0 0 1-1.061 1.63 4.464 4.464 0 0 1-1.63 1.061c-.649.252-1.351.401-2.365.448C13.174 19.993 12.73 20 10 20c-2.73 0-3.174-.007-4.432-.064-1.014-.047-1.716-.196-2.365-.448a4.455 4.455 0 0 1-1.63-1.061 4.464 4.464 0 0 1-1.061-1.63c-.252-.649-.401-1.35-.448-2.365C.007 13.174 0 12.731 0 10c0-2.731.007-3.174.064-4.432.047-1.015.196-1.716.448-2.365a4.464 4.464 0 0 1 1.061-1.63c.489-.489.98-.809 1.63-1.061C3.852.26 4.553.111 5.568.064 6.826.007 7.269 0 10 0c2.731 0 3.174.007 4.432.064ZM10 2.222c-2.7 0-3.113.007-4.331.062-.772.036-1.236.134-1.661.299a2.257 2.257 0 0 0-.864.561c-.27.27-.42.501-.561.864-.165.425-.263.889-.299 1.661C2.229 6.887 2.222 7.3 2.222 10s.007 3.113.062 4.331c.036.772.134 1.236.299 1.661.141.363.291.594.561.864.27.27.501.42.864.561.425.165.889.263 1.661.299 1.218.055 1.631.062 4.331.062s3.113-.007 4.331-.062c.772-.036 1.236-.134 1.661-.299.363-.141.594-.291.864-.561.27-.27.42-.501.561-.864.165-.425.263-.889.299-1.661.055-1.218.062-1.632.062-4.331 0-2.699-.007-3.113-.062-4.331-.036-.772-.134-1.236-.299-1.661a2.257 2.257 0 0 0-.561-.864c-.27-.27-.501-.42-.864-.561-.425-.165-.889-.263-1.661-.299-1.218-.055-1.631-.062-4.331-.062Zm0 12.963a5.184 5.184 0 1 1 0-10.37 5.184 5.184 0 1 1 0 10.37Zm0-2.222a2.964 2.964 0 1 0-.001-5.927A2.964 2.964 0 0 0 10 12.963Zm5.185-7.037a1.112 1.112 0 1 1 .002-2.224 1.112 1.112 0 0 1-.002 2.224Z"/></svg>