<svg xmlns="http://www.w3.org/2000/svg" xmlns:xlink="http://www.w3.org/1999/xlink" width="6204.46" height="6194.17" viewBox="0 0 6204.46 6194.17">
  <defs>
    <clipPath id="clip-path">
      <rect id="Rectangle_1" data-name="Rectangle 1" width="4175.774" height="4592.717" fill="#141414"/>
    </clipPath>
  </defs>
  <g id="Group_10" data-name="Group 10" transform="matrix(0.695, -0.719, 0.719, 0.695, 0, 3003.8)" clip-path="url(#clip-path)">
    <path id="Path_25" data-name="Path 25" d="M2093.837,0C882.077,0,0,1033.988,0,2296.646v12.376c0,1263.667,870.569,2283.7,2082.46,2283.7,1212.545,0,2093.314-1032.836,2093.314-2296.072v-12.52C4175.774,1021.611,3305.729,0,2093.837,0M3167.761,3566.07c0,57.851-42.633,104.766-95.2,104.766H2761.051c-30.078,0-58.456-15.686-76.5-42.309L1707.267,2178.065c-54.664-81.021-171.708-38.568-171.708,62.457V3566.07c0,57.851-42.632,104.766-95.2,104.766h-337.4c-52.572,0-95.2-46.915-95.2-104.766V1026.648c0-57.851,42.632-104.766,95.2-104.766H1452.91c30.209,0,58.587,15.83,76.634,42.453l938.7,1395.2c54.664,81.309,171.838,38.712,171.838-62.312V1026.648c0-57.851,42.633-104.766,95.2-104.766h337.269c52.571,0,95.2,46.914,95.2,104.766Z" transform="translate(-458.865 -603.335)" fill="#141414"/>
  </g>
</svg>
