<svg xmlns="http://www.w3.org/2000/svg" width="42" height="33.001" viewBox="0 0 42 33.001">
  <path id="unread_mail" data-name="unread mail" d="M1213.25,1115h-34.5a3.769,3.769,0,0,0-2.47.93.736.736,0,0,0-.122.08c-.013.012-.017.029-.029.043a3.611,3.611,0,0,0-1.128,2.615v25.666a3.714,3.714,0,0,0,3.75,3.667h34.5a3.714,3.714,0,0,0,3.75-3.667v-25.666A3.714,3.714,0,0,0,1213.25,1115Zm-34.5,1.467h34.5a2.28,2.28,0,0,1,.861.168l-18.126,17.724-18.118-17.714A2.276,2.276,0,0,1,1178.75,1116.467Zm-2.25,27.866v-25.666a2.133,2.133,0,0,1,.27-1.022l14.029,13.717-14.126,13.812A2.147,2.147,0,0,1,1176.5,1144.333Zm36.75,2.2h-34.5a2.263,2.263,0,0,1-1.066-.274l14.175-13.859,3.392,3.316c.012.012.029.016.043.027a.738.738,0,0,0,1.418-.023s0,0,.006,0l3.392-3.316,14.186,13.87A2.263,2.263,0,0,1,1213.25,1146.533Zm2.25-2.2a2.139,2.139,0,0,1-.182.863l-14.148-13.834,14.049-13.737a2.139,2.139,0,0,1,.281,1.042Z" transform="translate(-1175 -1115)" fill="#a4102b"/>
</svg>
