<svg xmlns="http://www.w3.org/2000/svg" width="35.991" height="37.007" viewBox="0 0 35.991 37.007">
  <path id="phone" d="M385.657,1141.049c-4.306-4.43-7.093-8.234-8.522-11.635-1.924-4.576-1.41-8.486,1.524-11.626a1.212,1.212,0,0,1,.633-.7.373.373,0,0,0,.1-.064l2.276-2.343a2.431,2.431,0,0,1,3.417,0l5.123,5.274a2.538,2.538,0,0,1,0,3.515l-2.277,2.344a2.539,2.539,0,0,0,0,3.515l9.111,9.374a2.432,2.432,0,0,0,3.415,0l2.278-2.345a2.429,2.429,0,0,1,3.416,0l5.124,5.273a2.54,2.54,0,0,1,0,3.515L409,1147.494a.409.409,0,0,0-.063.106,1.2,1.2,0,0,1-.676.651,8.807,8.807,0,0,1-6.345,2.739C397.415,1150.99,392.248,1147.832,385.657,1141.049Zm-7.044-12.292c1.347,3.2,4.024,6.841,8.182,11.12,6.184,6.363,11.131,9.456,15.123,9.456a7.244,7.244,0,0,0,5.376-2.425h0l-6.321-6.5a3.953,3.953,0,0,1-5.067-.527l-9.11-9.374a4.243,4.243,0,0,1-.513-5.213l-6.32-6.505C377.36,1121.466,376.918,1124.727,378.613,1128.758Zm29.819,16.98,1.709-1.759a.846.846,0,0,0,0-1.171l-5.124-5.274a.815.815,0,0,0-1.138,0l-1.709,1.759Zm-21.067-21.679,1.708-1.756a.852.852,0,0,0,0-1.172l-5.124-5.272a.812.812,0,0,0-1.139,0l-1.708,1.756Z" transform="translate(-375.995 -1113.983)" fill="#a4102b"/>
</svg>
