<svg xmlns="http://www.w3.org/2000/svg" width="30.012" height="44.02" viewBox="0 0 30.012 44.02">
  <path id="pin" d="M14.308,43.226C13.724,42.538,0,26.2,0,15.527A15.29,15.29,0,0,1,15.006,0c8.237,0,14.969,6.963,15.006,15.524.046,10.673-13.769,27.014-14.359,27.7l-.673.791ZM1.766,15.527c0,8.733,10.44,22.286,13.218,25.735,2.793-3.447,13.3-17,13.261-25.73-.033-7.59-5.972-13.764-13.24-13.764A13.522,13.522,0,0,0,1.766,15.527Zm6.809-.494a6.431,6.431,0,1,1,6.431,6.442A6.445,6.445,0,0,1,8.574,15.033Zm1.766,0a4.666,4.666,0,1,0,4.666-4.674A4.675,4.675,0,0,0,10.34,15.033Z" fill="#a4102b"/>
</svg>
